<svg xmlns="http://www.w3.org/2000/svg" width="50" height="50" fill="none" viewBox="0 0 50 50"><path fill="#fff" d="M25 4.16667C36.4875 4.16667 45.8333 13.5125 45.8333 25C45.8333 36.4875 36.4875 45.8333 25 45.8333C13.5125 45.8333 4.16667 36.4875 4.16667 25C4.16667 13.5125 13.5125 4.16667 25 4.16667ZM25 0C11.1937 0 0 11.1937 0 25C0 38.8062 11.1937 50 25 50C38.8062 50 50 38.8062 50 25C50 11.1937 38.8062 0 25 0ZM25 14.7542C28.3375 14.7542 28.7333 14.7667 30.0521 14.8271C33.4417 14.9812 35.0208 16.5875 35.1771 19.95C35.2354 21.2687 35.2479 21.6625 35.2479 25C35.2479 28.3375 35.2354 28.7333 35.1771 30.05C35.0208 33.4104 33.4437 35.0208 30.0521 35.175C28.7333 35.2333 28.3396 35.2479 25 35.2479C21.6625 35.2479 21.2667 35.2354 19.95 35.175C16.5542 35.0187 14.9812 33.4062 14.825 30.05C14.7667 28.7333 14.7521 28.3375 14.7521 25C14.7521 21.6625 14.7667 21.2667 14.825 19.95C14.9792 16.5854 16.5583 14.9792 19.95 14.825C21.2667 14.7646 21.6625 14.7542 25 14.7542ZM25 12.5C21.6042 12.5 21.1812 12.5146 19.8458 12.5771C15.3042 12.7854 12.7833 15.3042 12.575 19.8458C12.5146 21.1812 12.5 21.6062 12.5 25C12.5 28.3958 12.5146 28.8208 12.575 30.1542C12.7833 34.6937 15.3042 37.2167 19.8458 37.425C21.1812 37.4854 21.6042 37.5 25 37.5C28.3958 37.5 28.8208 37.4854 30.1562 37.425C34.6896 37.2167 37.2208 34.6979 37.425 30.1542C37.4854 28.8208 37.5 28.3958 37.5 25C37.5 21.6062 37.4854 21.1812 37.425 19.8458C37.2208 15.3104 34.6979 12.7833 30.1562 12.5771C28.8208 12.5146 28.3958 12.5 25 12.5ZM25 18.5812C21.4562 18.5812 18.5812 21.4542 18.5812 25C18.5812 28.5458 21.4562 31.4187 25 31.4187C28.5437 31.4187 31.4187 28.5458 31.4187 25C31.4187 21.4562 28.5437 18.5812 25 18.5812ZM25 29.1667C22.6979 29.1667 20.8333 27.3021 20.8333 25C20.8333 22.7 22.6979 20.8333 25 20.8333C27.3 20.8333 29.1687 22.6979 29.1687 25C29.1687 27.3021 27.3 29.1667 25 29.1667ZM31.6708 16.8292C30.8437 16.8292 30.1708 17.5 30.1708 18.3292C30.1708 19.1562 30.8417 19.8292 31.6708 19.8292C32.5 19.8292 33.1729 19.1583 33.1729 18.3292C33.1729 17.5 32.5021 16.8292 31.6708 16.8292Z"/></svg>