<svg xmlns="http://www.w3.org/2000/svg" width="50" height="50" fill="none" viewBox="0 0 50 50"><path fill="#fff" d="M25 4.16667C36.4875 4.16667 45.8333 13.5125 45.8333 25C45.8333 36.4875 36.4875 45.8333 25 45.8333C13.5125 45.8333 4.16667 36.4875 4.16667 25C4.16667 13.5125 13.5125 4.16667 25 4.16667ZM25 0C11.1938 0 0 11.1938 0 25C0 38.8063 11.1938 50 25 50C38.8063 50 50 38.8063 50 25C50 11.1938 38.8063 0 25 0ZM20.8333 16.6667C20.8333 17.8271 19.9021 18.7667 18.75 18.7667C17.5979 18.7667 16.6667 17.8292 16.6667 16.6667C16.6667 15.5062 17.5979 14.5667 18.75 14.5667C19.9021 14.5667 20.8333 15.5083 20.8333 16.6667ZM20.8333 20.8333H16.6667V33.3333H20.8333V20.8333ZM27.0833 20.8333H22.9167V33.3333H27.0833V27.3729C27.0833 23.7854 31.2542 23.4542 31.2542 27.3729V33.3333H35.4167V26.3354C35.4167 19.4937 28.9 19.7437 27.0833 23.1104V20.8333Z"/></svg>